<?xml version="1.0" encoding="UTF-8"?>
<!DOCTYPE svg PUBLIC "-//W3C//DTD SVG 1.1//EN" "http://www.w3.org/Graphics/SVG/1.1/DTD/svg11.dtd">
<svg xmlns="http://www.w3.org/2000/svg" version="1.1" width="1500px" height="500px" style="shape-rendering:geometricPrecision; text-rendering:geometricPrecision; image-rendering:optimizeQuality; fill-rule:evenodd; clip-rule:evenodd" xmlns:xlink="http://www.w3.org/1999/xlink">
<g><path style="opacity:0.961" fill="#f3d0ce" d="M 149.5,86.5 C 159.855,86.1681 170.188,86.5014 180.5,87.5C 184.216,89.9356 186.716,93.269 188,97.5C 194.187,128.995 198.02,160.995 199.5,193.5C 195.89,194.624 192.224,195.624 188.5,196.5C 188.167,198 187.833,199.5 187.5,201C 186.562,218.817 186.228,236.65 186.5,254.5C 151.986,260.895 123.319,250.895 100.5,224.5C 92.1529,212.792 86.9862,199.792 85,185.5C 83.9637,172.933 82.797,160.433 81.5,148C 81.9068,143.323 81.9068,138.823 81.5,134.5C 81.8027,124.746 85.8027,116.913 93.5,111C 104.776,103.469 116.776,97.469 129.5,93C 135.752,91.0414 142.086,89.3747 148.5,88C 149.056,87.6174 149.389,87.1174 149.5,86.5 Z"/></g>
<g><path style="opacity:0.962" fill="#f0e0d1" d="M 240.5,86.5 C 251.172,86.3335 261.839,86.5002 272.5,87C 290.609,92.4271 307.942,99.7605 324.5,109C 332.656,115.136 336.823,123.303 337,133.5C 338.744,159.108 336.077,184.108 329,208.5C 320.861,227.305 307.361,240.805 288.5,249C 275.504,253.416 262.171,256.249 248.5,257.5C 240.79,258.669 235.623,255.669 233,248.5C 231.77,233.539 231.103,218.539 231,203.5C 230.24,197.654 227.24,193.321 222,190.5C 221.333,182.167 221.333,173.833 222,165.5C 224.107,142.562 227.44,119.896 232,97.5C 233,95.5 234,93.5 235,91.5C 237.029,89.9675 238.862,88.3008 240.5,86.5 Z"/></g>
<g><path style="opacity:0.766" fill="#8f7676" d="M 506.5,159.5 C 517.737,160.445 528.904,160.778 540,160.5C 540.667,162.167 540.667,163.833 540,165.5C 537.407,166.77 534.907,168.103 532.5,169.5C 537.821,183.121 542.987,196.788 548,210.5C 553.428,197.249 558.594,183.916 563.5,170.5C 563.392,169.558 563.059,168.725 562.5,168C 557.237,167.56 555.237,164.727 556.5,159.5C 564.525,160.688 572.525,160.688 580.5,159.5C 584.108,161.508 584.442,164.008 581.5,167C 577.858,166.712 575.358,168.212 574,171.5C 565.02,193.087 556.02,214.754 547,236.5C 544.959,237.423 542.792,237.756 540.5,237.5C 532.456,215.662 523.956,193.995 515,172.5C 513.98,171.109 513.147,169.609 512.5,168C 505.778,168.504 503.778,165.67 506.5,159.5 Z"/></g>
<g><path style="opacity:0.753" fill="#8f7676" d="M 586.5,159.5 C 603.84,160.65 621.173,160.816 638.5,160C 639.931,160.465 641.097,161.299 642,162.5C 642.278,168.225 643.445,173.725 645.5,179C 643.386,180.518 641.053,180.851 638.5,180C 632.816,169.173 623.816,165.339 611.5,168.5C 611.5,176.833 611.5,185.167 611.5,193.5C 616.179,193.666 620.845,193.499 625.5,193C 626.833,190.333 628.167,187.667 629.5,185C 631.134,184.506 632.801,184.34 634.5,184.5C 634.5,193.167 634.5,201.833 634.5,210.5C 629.011,210.675 626.678,208.008 627.5,202.5C 622.167,202.5 616.833,202.5 611.5,202.5C 611.5,210.5 611.5,218.5 611.5,226.5C 620.045,229.824 628.212,229.157 636,224.5C 638.357,222.047 640.19,219.214 641.5,216C 643.769,215.242 645.936,215.409 648,216.5C 647.211,222.933 645.711,229.267 643.5,235.5C 642.624,236.251 641.624,236.751 640.5,237C 622.453,236.514 604.453,236.348 586.5,236.5C 584.552,231.096 586.552,228.429 592.5,228.5C 593.172,208.935 593.839,189.435 594.5,170C 591.922,168.217 589.089,167.051 586,166.5C 585.297,164.071 585.463,161.738 586.5,159.5 Z"/></g>
<g><path style="opacity:0.8" fill="#8f7676" d="M 654.5,159.5 C 666.146,160.222 677.813,160.722 689.5,161C 703.171,161.846 711.171,169.013 713.5,182.5C 711.873,190.776 707.54,197.109 700.5,201.5C 706.137,210.303 711.971,218.97 718,227.5C 721.171,228.536 724.171,229.87 727,231.5C 729.762,230.019 732.429,228.353 735,226.5C 744.254,204.914 753.421,183.247 762.5,161.5C 764.527,159.661 766.86,159.161 769.5,160C 778.692,183.089 788.359,205.922 798.5,228.5C 803.367,229.03 805.701,231.696 805.5,236.5C 794.509,236.577 783.509,236.577 772.5,236.5C 771.359,234.579 771.192,232.579 772,230.5C 774.343,229.873 776.51,228.873 778.5,227.5C 776.5,222.833 774.5,218.167 772.5,213.5C 772.709,212.914 773.043,212.414 773.5,212C 765.833,211.333 758.167,211.333 750.5,212C 750.833,212.333 751.167,212.667 751.5,213C 749.507,217.638 747.507,222.305 745.5,227C 745.645,227.772 745.978,228.439 746.5,229C 752.468,229.645 753.801,232.311 750.5,237C 736.408,237.62 722.408,237.62 708.5,237C 704.532,236.036 701.365,233.869 699,230.5C 693.321,221.8 687.654,213.133 682,204.5C 680.989,203.663 679.822,203.33 678.5,203.5C 678.334,211.174 678.5,218.841 679,226.5C 681.795,228.503 684.962,229.837 688.5,230.5C 690.279,232.193 690.779,234.193 690,236.5C 678.187,236.547 666.353,236.547 654.5,236.5C 653.369,234.926 653.202,233.259 654,231.5C 656.559,230.02 659.226,228.687 662,227.5C 662.667,208.167 662.667,188.833 662,169.5C 659.467,168.128 656.8,167.128 654,166.5C 651.912,163.956 652.079,161.623 654.5,159.5 Z M 678.5,168.5 C 692.51,169.482 697.344,176.815 693,190.5C 692.167,191.333 691.333,192.167 690.5,193C 686.637,194.354 682.637,194.854 678.5,194.5C 678.5,185.833 678.5,177.167 678.5,168.5 Z M 761.5,183.5 C 763.846,190.015 766.513,196.515 769.5,203C 764.5,203.667 759.5,203.667 754.5,203C 757.44,196.321 759.773,189.821 761.5,183.5 Z"/></g>
<g><path style="opacity:0.768" fill="#8f7676" d="M 831.5,159.5 C 849.169,160.634 866.836,160.8 884.5,160C 888.028,166.306 889.695,173.139 889.5,180.5C 887.473,180.662 885.473,180.495 883.5,180C 881.833,174.333 878.167,170.667 872.5,169C 867.167,168.333 861.833,168.333 856.5,169C 856.786,177.208 856.453,185.541 855.5,194C 860.5,194.667 865.5,194.667 870.5,194C 872.387,192.031 873.72,189.698 874.5,187C 876.473,186.505 878.473,186.338 880.5,186.5C 879.576,194.859 879.243,203.193 879.5,211.5C 877.776,212.661 876.11,212.495 874.5,211C 873.802,208.546 872.802,206.213 871.5,204C 866.511,203.501 861.511,203.334 856.5,203.5C 856.334,211.174 856.5,218.841 857,226.5C 860.228,228.313 863.561,229.98 867,231.5C 867.798,233.259 867.631,234.926 866.5,236.5C 854.877,236.174 843.21,236.507 831.5,237.5C 829.925,230.741 832.592,227.741 839.5,228.5C 839.5,208.5 839.5,188.5 839.5,168.5C 836.882,168.221 834.382,167.554 832,166.5C 831.503,164.19 831.337,161.857 831.5,159.5 Z"/></g>
<g><path style="opacity:0.767" fill="#8f7676" d="M 895.5,159.5 C 913.169,160.634 930.836,160.8 948.5,160C 952.028,166.306 953.695,173.139 953.5,180.5C 951.473,180.662 949.473,180.495 947.5,180C 945.833,174.333 942.167,170.667 936.5,169C 931.177,168.501 925.844,168.334 920.5,168.5C 920.5,176.833 920.5,185.167 920.5,193.5C 925.511,193.666 930.511,193.499 935.5,193C 936.872,190.467 937.872,187.8 938.5,185C 940.473,184.505 942.473,184.338 944.5,184.5C 944.5,193.167 944.5,201.833 944.5,210.5C 939.383,210.944 936.716,208.611 936.5,203.5C 931.282,202.811 926.116,202.144 921,201.5C 920.5,209.827 920.334,218.16 920.5,226.5C 928.245,229.157 935.911,228.99 943.5,226C 946.726,223.036 949.059,219.536 950.5,215.5C 952.833,215.5 955.167,215.5 957.5,215.5C 956.703,222.315 955.203,228.981 953,235.5C 952.25,236.126 951.416,236.626 950.5,237C 932.174,236.167 913.841,236.334 895.5,237.5C 895.337,235.143 895.503,232.81 896,230.5C 898.382,229.446 900.882,228.779 903.5,228.5C 903.667,208.831 903.5,189.164 903,169.5C 900.787,168.198 898.454,167.198 896,166.5C 895.503,164.19 895.337,161.857 895.5,159.5 Z"/></g>
<g><path style="opacity:0.802" fill="#8f7676" d="M 963.5,159.5 C 977.515,160.045 991.515,160.878 1005.5,162C 1013.15,163.655 1018.32,168.155 1021,175.5C 1023.86,187.087 1020.02,195.753 1009.5,201.5C 1015.47,210.598 1021.8,219.431 1028.5,228C 1034.66,228.317 1037.32,231.484 1036.5,237.5C 1030.16,237.666 1023.82,237.5 1017.5,237C 1015.5,236 1013.5,235 1011.5,234C 1004.28,223.707 996.944,213.541 989.5,203.5C 988.335,211.479 988.168,219.479 989,227.5C 991.737,228.56 994.57,229.394 997.5,230C 1000.67,234.143 999.671,236.643 994.5,237.5C 983.927,236.616 973.427,236.283 963,236.5C 962.065,231.386 964.232,228.719 969.5,228.5C 970.251,227.624 970.751,226.624 971,225.5C 971.167,216.5 971.333,207.5 971.5,198.5C 971.14,188.793 971.14,179.293 971.5,170C 970.833,169.333 970.167,168.667 969.5,168C 962.778,168.504 960.778,165.67 963.5,159.5 Z M 988.5,168.5 C 992.693,168.953 996.693,170.119 1000.5,172C 1002.06,175.394 1003.39,178.894 1004.5,182.5C 1003.39,186.106 1002.06,189.606 1000.5,193C 996.605,194.266 992.605,194.766 988.5,194.5C 988.5,185.833 988.5,177.167 988.5,168.5 Z"/></g>
<g><path style="opacity:0.784" fill="#8f7676" d="M 1041.5,159.5 C 1048.88,159.952 1056.21,160.786 1063.5,162C 1074.79,176.076 1085.95,190.242 1097,204.5C 1097.67,192.5 1097.67,180.5 1097,168.5C 1094.85,167.887 1092.69,167.221 1090.5,166.5C 1087.58,163.429 1088.08,161.095 1092,159.5C 1099.58,160.43 1107.08,160.763 1114.5,160.5C 1116.1,165.594 1114.1,168.261 1108.5,168.5C 1107.5,191.49 1107.17,214.49 1107.5,237.5C 1103.09,238.382 1099.59,237.048 1097,233.5C 1084.05,216.213 1070.71,199.213 1057,182.5C 1056.33,197.5 1056.33,212.5 1057,227.5C 1059.27,228.956 1061.77,229.79 1064.5,230C 1065.77,232.139 1065.77,234.305 1064.5,236.5C 1063.55,236.987 1062.55,237.32 1061.5,237.5C 1054.45,236.654 1047.45,236.321 1040.5,236.5C 1039.29,234.516 1039.29,232.516 1040.5,230.5C 1042.92,229.928 1045.08,228.928 1047,227.5C 1047.67,208.167 1047.67,188.833 1047,169.5C 1045.31,167.955 1043.31,166.955 1041,166.5C 1038.91,163.956 1039.08,161.623 1041.5,159.5 Z"/></g>
<g><path style="opacity:0.767" fill="#8f7676" d="M 1149.5,159.5 C 1151.47,159.261 1153.3,159.594 1155,160.5C 1163.68,181.867 1172.34,203.201 1181,224.5C 1182.38,227.883 1184.88,229.716 1188.5,230C 1191.59,233.858 1190.76,236.358 1186,237.5C 1178.34,236.205 1170.67,236.205 1163,237.5C 1161.44,237.397 1159.94,237.063 1158.5,236.5C 1157.53,234.257 1157.19,231.924 1157.5,229.5C 1159.98,229.949 1161.98,229.283 1163.5,227.5C 1162.39,224.508 1161.05,221.675 1159.5,219C 1159.83,218.667 1160.17,218.333 1160.5,218C 1158.98,216.103 1158.32,213.936 1158.5,211.5C 1150.91,211.186 1143.41,211.519 1136,212.5C 1134.47,217.604 1132.63,222.604 1130.5,227.5C 1133.16,228.812 1135.66,230.479 1138,232.5C 1138.78,234.433 1138.28,235.933 1136.5,237C 1129.17,236.302 1121.83,236.468 1114.5,237.5C 1110.9,235.646 1110.57,233.146 1113.5,230C 1115.89,229.697 1118.06,228.863 1120,227.5C 1128.86,206.537 1137.69,185.037 1146.5,163C 1147.54,161.826 1148.54,160.659 1149.5,159.5 Z M 1146.5,184.5 C 1149.5,190.227 1152.17,196.227 1154.5,202.5C 1149.5,203.833 1144.5,203.833 1139.5,202.5C 1142.77,196.888 1145.1,190.888 1146.5,184.5 Z"/></g>
<g><path style="opacity:0.783" fill="#8f7676" d="M 1193.5,159.5 C 1200.9,159.851 1208.24,160.684 1215.5,162C 1227.38,176.212 1238.88,190.712 1250,205.5C 1250.83,193.153 1250.67,180.82 1249.5,168.5C 1247.56,167.811 1245.56,167.311 1243.5,167C 1240.33,163.614 1240.83,161.114 1245,159.5C 1252.42,160.406 1259.75,160.739 1267,160.5C 1268.86,165.734 1267.02,168.401 1261.5,168.5C 1260.5,191.49 1260.17,214.49 1260.5,237.5C 1258.14,237.663 1255.81,237.497 1253.5,237C 1238.4,219.289 1223.9,201.123 1210,182.5C 1209.33,197.5 1209.33,212.5 1210,227.5C 1212.53,228.872 1215.2,229.872 1218,230.5C 1218.67,232.5 1218.67,234.5 1218,236.5C 1209.85,236.527 1201.69,236.527 1193.5,236.5C 1192.29,234.516 1192.29,232.516 1193.5,230.5C 1195.92,229.928 1198.08,228.928 1200,227.5C 1200.67,208.167 1200.67,188.833 1200,169.5C 1198.31,167.955 1196.31,166.955 1194,166.5C 1192.34,164.214 1192.17,161.881 1193.5,159.5 Z"/></g>
<g><path style="opacity:0.808" fill="#8f7676" d="M 1275.5,159.5 C 1288.81,160.259 1302.14,160.759 1315.5,161C 1334.96,162.46 1347.13,172.626 1352,191.5C 1354.17,215.978 1343.34,230.812 1319.5,236C 1305.81,236.22 1292.15,236.72 1278.5,237.5C 1274.39,237.486 1272.89,235.486 1274,231.5C 1276.49,229.664 1279.33,228.664 1282.5,228.5C 1282.67,208.831 1282.5,189.164 1282,169.5C 1279.33,168.167 1276.67,166.833 1274,165.5C 1273.26,163.126 1273.76,161.126 1275.5,159.5 Z M 1299.5,168.5 C 1326.81,168.663 1337.98,182.33 1333,209.5C 1329.23,222.246 1320.56,228.58 1307,228.5C 1304.8,227.91 1302.64,227.243 1300.5,226.5C 1299.5,207.178 1299.17,187.845 1299.5,168.5 Z"/></g>
<g><path style="opacity:0.75" fill="#8f7676" d="M 1360.5,159.5 C 1377.83,160.618 1395.16,160.784 1412.5,160C 1415.81,166.284 1417.47,173.117 1417.5,180.5C 1415.47,180.662 1413.47,180.495 1411.5,180C 1405.82,169.173 1396.82,165.339 1384.5,168.5C 1384.5,176.833 1384.5,185.167 1384.5,193.5C 1389.56,193.781 1394.56,193.448 1399.5,192.5C 1401.05,190.067 1401.72,187.4 1401.5,184.5C 1403.83,184.5 1406.17,184.5 1408.5,184.5C 1407.17,193.167 1407.17,201.833 1408.5,210.5C 1402.76,211.065 1400.09,208.398 1400.5,202.5C 1395.24,202.805 1390.07,202.471 1385,201.5C 1384.5,209.827 1384.33,218.16 1384.5,226.5C 1391.15,228.524 1397.81,228.691 1404.5,227C 1409.57,224.933 1412.9,221.267 1414.5,216C 1416.81,215.503 1419.14,215.337 1421.5,215.5C 1420.63,222.314 1419.13,228.981 1417,235.5C 1415.93,236.191 1414.77,236.691 1413.5,237C 1396.67,236.24 1379.84,236.407 1363,237.5C 1358.46,237.488 1356.96,235.488 1358.5,231.5C 1361.76,230.197 1364.76,228.53 1367.5,226.5C 1366.17,207.833 1366.17,189.167 1367.5,170.5C 1364.23,168.677 1361.07,166.677 1358,164.5C 1357.29,162.045 1358.13,160.378 1360.5,159.5 Z"/></g>
<g><path style="opacity:0.779" fill="#8f7676" d="M 1444.5,159.5 C 1454.59,158.531 1464.26,159.864 1473.5,163.5C 1475.34,169.692 1476.34,176.026 1476.5,182.5C 1471.06,183.199 1467.89,180.866 1467,175.5C 1461.77,168.81 1454.94,166.644 1446.5,169C 1440.84,173.286 1440.18,178.286 1444.5,184C 1452.24,188.203 1460.24,191.87 1468.5,195C 1480.27,203.483 1482.77,214.316 1476,227.5C 1466.8,237.082 1455.63,240.248 1442.5,237C 1438.11,235.869 1433.77,234.535 1429.5,233C 1428.87,232.25 1428.37,231.416 1428,230.5C 1427.17,223.854 1426.67,217.187 1426.5,210.5C 1428.59,210.318 1430.59,210.652 1432.5,211.5C 1434.78,214.887 1436.61,218.553 1438,222.5C 1439.87,224.709 1442.04,226.542 1444.5,228C 1449.5,228.667 1454.5,228.667 1459.5,228C 1465.23,223.24 1465.9,217.907 1461.5,212C 1452.87,207.668 1444.2,203.335 1435.5,199C 1426.55,190.493 1425.05,180.66 1431,169.5C 1435.14,165.503 1439.64,162.17 1444.5,159.5 Z"/></g>
<g><path style="opacity:0.953" fill="#f0e0d1" d="M 374.5,161.5 C 378.803,160.796 382.303,162.13 385,165.5C 392.143,175.944 397.143,187.277 400,199.5C 400.916,217.539 400.582,235.539 399,253.5C 380.799,300.7 347.632,332.2 299.5,348C 287.488,351.001 275.488,354.001 263.5,357C 253.483,357.832 243.483,357.666 233.5,356.5C 231.261,353.909 229.761,350.909 229,347.5C 227.725,330.919 228.725,314.585 232,298.5C 234.291,292.405 238.124,287.571 243.5,284C 247.038,281.731 250.705,279.731 254.5,278C 273.347,271.052 292.014,263.719 310.5,256C 329.699,245.1 344.533,229.933 355,210.5C 363.185,194.684 369.685,178.351 374.5,161.5 Z"/></g>
<g><path style="opacity:0.954" fill="#f3d0ce" d="M 42.5,163.5 C 44.1992,163.34 45.8659,163.506 47.5,164C 51.7256,187.622 61.2256,209.122 76,228.5C 89.6514,243.572 105.818,255.072 124.5,263C 140.021,269.141 155.688,275.141 171.5,281C 179.05,285.55 184.884,291.717 189,299.5C 189.5,318.83 189.667,338.164 189.5,357.5C 122.286,360.81 70.1192,334.477 33,278.5C 26.6752,267.177 22.0085,255.177 19,242.5C 14.1966,216.707 18.8633,193.041 33,171.5C 35.772,168.217 38.9386,165.55 42.5,163.5 Z"/></g>
<g><path style="opacity:0.557" fill="#d9a4a3" d="M 1256.5,248.5 C 1258.5,248.5 1260.5,248.5 1262.5,248.5C 1261.88,252.766 1260.22,256.599 1257.5,260C 1261.25,261.415 1264.08,263.915 1266,267.5C 1266.67,277.833 1266.67,288.167 1266,298.5C 1262.23,305.414 1256.73,307.247 1249.5,304C 1247.62,302.457 1246.12,300.624 1245,298.5C 1244.33,288.167 1244.33,277.833 1245,267.5C 1246.75,264.08 1249.42,261.746 1253,260.5C 1253.87,256.333 1255.04,252.333 1256.5,248.5 Z M 1253.5,266.5 C 1256.32,266.081 1258.49,267.081 1260,269.5C 1260.67,278.5 1260.67,287.5 1260,296.5C 1258.33,299.379 1255.83,300.212 1252.5,299C 1251.87,298.25 1251.37,297.416 1251,296.5C 1250.33,287.5 1250.33,278.5 1251,269.5C 1252.04,268.627 1252.88,267.627 1253.5,266.5 Z"/></g>
<g><path style="opacity:0.448" fill="#d9a4a3" d="M 762.5,251.5 C 764.827,251.247 766.827,251.914 768.5,253.5C 770.51,251.829 772.843,251.162 775.5,251.5C 775.914,259.49 772.747,261.49 766,257.5C 764.211,259.229 762.044,259.896 759.5,259.5C 759.144,256.224 760.144,253.557 762.5,251.5 Z"/></g>
<g><path style="opacity:0.532" fill="#d9a4a3" d="M 729.5,260.5 C 739.501,260.161 743.835,264.828 742.5,274.5C 740.833,275.833 739.167,275.833 737.5,274.5C 736.971,271.743 735.971,269.243 734.5,267C 731.692,266.08 729.525,266.913 728,269.5C 728.791,278.333 728.624,287.166 727.5,296C 728.82,299.206 731.153,300.206 734.5,299C 736.072,296.962 737.072,294.629 737.5,292C 739.473,291.505 741.473,291.338 743.5,291.5C 744.269,297.294 742.269,301.794 737.5,305C 741.734,312.773 739.401,316.44 730.5,316C 729.594,314.301 729.261,312.467 729.5,310.5C 730.978,310.762 732.311,310.429 733.5,309.5C 731.239,307.071 728.572,305.238 725.5,304C 723.959,302.421 722.792,300.587 722,298.5C 721.333,288.167 721.333,277.833 722,267.5C 723.767,264.228 726.267,261.895 729.5,260.5 Z"/></g>
<g><path style="opacity:0.572" fill="#d9a4a3" d="M 801.5,260.5 C 807.458,259.977 811.792,262.31 814.5,267.5C 815.666,277.817 815.832,288.151 815,298.5C 810.902,305.505 805.069,307.338 797.5,304C 795.945,302.417 794.778,300.584 794,298.5C 793.333,288.167 793.333,277.833 794,267.5C 795.767,264.228 798.267,261.895 801.5,260.5 Z M 802.5,266.5 C 805.325,266.081 807.491,267.081 809,269.5C 809.667,278.5 809.667,287.5 809,296.5C 806.339,299.966 803.339,300.299 800,297.5C 799.333,288.167 799.333,278.833 800,269.5C 801.045,268.627 801.878,267.627 802.5,266.5 Z"/></g>
<g><path style="opacity:0.593" fill="#d9a4a3" d="M 1011.5,260.5 C 1017.09,259.743 1021.26,261.743 1024,266.5C 1024.67,278.167 1024.67,289.833 1024,301.5C 1017.32,307.121 1010.99,306.788 1005,300.5C 1004.33,289.167 1004.33,277.833 1005,266.5C 1006.44,263.558 1008.6,261.558 1011.5,260.5 Z M 1012.5,266.5 C 1016.25,266.082 1018.42,267.749 1019,271.5C 1019.88,280.562 1019.55,289.562 1018,298.5C 1012.35,301.03 1009.51,299.196 1009.5,293C 1010.83,286.333 1010.83,279.667 1009.5,273C 1010.13,270.625 1011.13,268.459 1012.5,266.5 Z"/></g>
<g><path style="opacity:0.544" fill="#d9a4a3" d="M 1084.5,260.5 C 1094.85,259.938 1099.51,264.604 1098.5,274.5C 1096.96,275.747 1095.46,275.747 1094,274.5C 1093.33,272.5 1092.67,270.5 1092,268.5C 1086.77,265.519 1083.93,267.186 1083.5,273.5C 1083.59,275.228 1083.92,276.894 1084.5,278.5C 1096,279.823 1100.83,286.156 1099,297.5C 1096.45,304.358 1091.62,306.858 1084.5,305C 1082.15,304.654 1080.32,303.487 1079,301.5C 1077.8,298.274 1077.3,294.941 1077.5,291.5C 1079.5,291.5 1081.5,291.5 1083.5,291.5C 1082.33,297.496 1084.67,299.996 1090.5,299C 1091.74,297.846 1092.74,296.512 1093.5,295C 1093.3,292.699 1092.8,290.533 1092,288.5C 1088.76,286.642 1085.26,285.308 1081.5,284.5C 1079.8,283.198 1078.63,281.531 1078,279.5C 1075.66,271.343 1077.82,265.01 1084.5,260.5 Z"/></g>
<g><path style="opacity:0.555" fill="#d9a4a3" d="M 1145.5,260.5 C 1155.34,260.168 1159.84,264.835 1159,274.5C 1158.44,275.022 1157.77,275.355 1157,275.5C 1154.94,272.747 1152.77,269.914 1150.5,267C 1148.3,266.175 1146.47,266.675 1145,268.5C 1144.33,278.167 1144.33,287.833 1145,297.5C 1148.81,300.539 1151.81,299.872 1154,295.5C 1154.49,294.207 1154.66,292.873 1154.5,291.5C 1156.17,291.5 1157.83,291.5 1159.5,291.5C 1160.35,302.486 1155.35,306.986 1144.5,305C 1142.38,303.878 1140.54,302.378 1139,300.5C 1138.33,289.167 1138.33,277.833 1139,266.5C 1140.49,263.686 1142.66,261.686 1145.5,260.5 Z"/></g>
<g><path style="opacity:0.593" fill="#d9a4a3" d="M 1182.5,260.5 C 1189.25,259.566 1193.75,262.232 1196,268.5C 1196.67,278.5 1196.67,288.5 1196,298.5C 1191.96,305.505 1186.13,307.339 1178.5,304C 1177.21,302.59 1176.05,301.09 1175,299.5C 1174.33,288.833 1174.33,278.167 1175,267.5C 1176.77,264.228 1179.27,261.895 1182.5,260.5 Z M 1183.5,266.5 C 1186.81,265.974 1188.97,267.307 1190,270.5C 1190.67,278.833 1190.67,287.167 1190,295.5C 1187.87,299.861 1184.87,300.527 1181,297.5C 1180.33,288.167 1180.33,278.833 1181,269.5C 1182.04,268.627 1182.88,267.627 1183.5,266.5 Z"/></g>
<g><path style="opacity:0.543" fill="#d9a4a3" d="M 1290.5,260.5 C 1300.85,260.334 1305.18,265.168 1303.5,275C 1299.22,275.916 1297.39,274.083 1298,269.5C 1293.87,265.115 1290.87,265.782 1289,271.5C 1288.09,280.576 1288.42,289.576 1290,298.5C 1292.92,300.013 1295.58,299.68 1298,297.5C 1298.5,294.518 1298.66,291.518 1298.5,288.5C 1296.5,288.5 1294.5,288.5 1292.5,288.5C 1292.5,286.5 1292.5,284.5 1292.5,282.5C 1296.5,282.5 1300.5,282.5 1304.5,282.5C 1304.67,288.176 1304.5,293.843 1304,299.5C 1300.63,304.85 1295.8,306.683 1289.5,305C 1286.16,303.437 1283.99,300.937 1283,297.5C 1282.1,286.774 1282.43,276.107 1284,265.5C 1286.07,263.579 1288.24,261.912 1290.5,260.5 Z"/></g>
<g><path style="opacity:0.539" fill="#d9a4a3" d="M 1351.5,260.5 C 1361.85,260.334 1366.18,265.168 1364.5,275C 1360.22,275.916 1358.39,274.083 1359,269.5C 1354.22,264.946 1351.22,265.946 1350,272.5C 1349.23,280.53 1349.4,288.53 1350.5,296.5C 1352.9,300.01 1355.73,300.343 1359,297.5C 1359.5,295.527 1359.66,293.527 1359.5,291.5C 1361.5,291.5 1363.5,291.5 1365.5,291.5C 1366.37,302.465 1361.37,306.965 1350.5,305C 1348.38,303.878 1346.54,302.378 1345,300.5C 1343.02,288.847 1343.02,277.18 1345,265.5C 1347.33,263.934 1349.49,262.268 1351.5,260.5 Z"/></g>
<g><path style="opacity:0.576" fill="#d9a4a3" d="M 533.5,261.5 C 536.044,261.104 538.211,261.771 540,263.5C 542.835,277.18 545.668,290.847 548.5,304.5C 546.208,304.756 544.041,304.423 542,303.5C 541.774,300.905 541.274,298.405 540.5,296C 537.518,295.502 534.518,295.335 531.5,295.5C 531.492,298.545 531.159,301.545 530.5,304.5C 528.5,304.5 526.5,304.5 524.5,304.5C 526.966,290.03 529.966,275.697 533.5,261.5 Z M 538.5,289.5 C 536.554,289.807 534.887,289.807 533.5,289.5C 534.547,285.222 535.38,280.888 536,276.5C 537.686,280.604 538.519,284.938 538.5,289.5 Z"/></g>
<g><path style="opacity:0.561" fill="#d9a4a3" d="M 559.5,261.5 C 561.467,261.261 563.301,261.594 565,262.5C 566.092,270.749 567.926,278.749 570.5,286.5C 571.086,286.291 571.586,285.957 572,285.5C 572.994,277.361 574.494,269.361 576.5,261.5C 578.5,261.5 580.5,261.5 582.5,261.5C 580.393,276.036 577.393,290.369 573.5,304.5C 571.5,304.5 569.5,304.5 567.5,304.5C 564.987,291.272 561.987,278.105 558.5,265C 558.648,263.744 558.982,262.577 559.5,261.5 Z"/></g>
<g><path style="opacity:0.573" fill="#d9a4a3" d="M 601.5,261.5 C 603.792,261.244 605.959,261.577 608,262.5C 611.538,276.731 614.705,290.731 617.5,304.5C 610.977,305.181 608.31,302.181 609.5,295.5C 606.482,295.335 603.482,295.502 600.5,296C 600.469,298.387 599.803,300.887 598.5,303.5C 596.604,304.466 594.604,304.799 592.5,304.5C 595.39,290.167 598.39,275.834 601.5,261.5 Z M 607.5,289.5 C 605.833,289.5 604.167,289.5 602.5,289.5C 603.023,285.127 603.857,280.794 605,276.5C 605.645,280.889 606.478,285.223 607.5,289.5 Z"/></g>
<g><path style="opacity:0.569" fill="#d9a4a3" d="M 631.5,261.5 C 633.5,261.5 635.5,261.5 637.5,261.5C 637.5,273.833 637.5,286.167 637.5,298.5C 641.5,298.5 645.5,298.5 649.5,298.5C 649.5,300.5 649.5,302.5 649.5,304.5C 643.5,304.5 637.5,304.5 631.5,304.5C 631.5,290.167 631.5,275.833 631.5,261.5 Z"/></g>
<g><path style="opacity:0.512" fill="#d9a4a3" d="M 663.5,261.5 C 665.5,261.5 667.5,261.5 669.5,261.5C 669.5,275.833 669.5,290.167 669.5,304.5C 667.5,304.5 665.5,304.5 663.5,304.5C 663.5,290.167 663.5,275.833 663.5,261.5 Z"/></g>
<g><path style="opacity:0.581" fill="#d9a4a3" d="M 693.5,261.5 C 695.167,261.5 696.833,261.5 698.5,261.5C 702.249,275.659 705.249,289.993 707.5,304.5C 705.5,304.5 703.5,304.5 701.5,304.5C 701.037,301.518 700.704,298.518 700.5,295.5C 697.5,295.5 694.5,295.5 691.5,295.5C 690.841,298.455 690.508,301.455 690.5,304.5C 688.5,304.5 686.5,304.5 684.5,304.5C 686.3,290.176 689.3,275.842 693.5,261.5 Z M 694.5,278.5 C 695.497,278.47 696.164,278.97 696.5,280C 697.659,283.451 698.159,286.951 698,290.5C 696.644,289.62 695.144,289.286 693.5,289.5C 694.114,285.865 694.448,282.198 694.5,278.5 Z"/></g>
<g><path style="opacity:0.575" fill="#d9a4a3" d="M 764.5,261.5 C 767.079,261.083 769.246,261.75 771,263.5C 774.423,277.024 777.256,290.69 779.5,304.5C 777.396,304.799 775.396,304.466 773.5,303.5C 772.833,301.167 772.167,298.833 771.5,296.5C 768.572,295.516 765.572,295.183 762.5,295.5C 762.492,298.545 762.159,301.545 761.5,304.5C 759.5,304.5 757.5,304.5 755.5,304.5C 758.121,290.062 761.121,275.729 764.5,261.5 Z M 767.5,277.5 C 768.439,281.249 769.439,285.083 770.5,289C 768.567,289.251 766.734,289.751 765,290.5C 765.18,286.092 766.014,281.759 767.5,277.5 Z"/></g>
<g><path style="opacity:0.552" fill="#d9a4a3" d="M 854.5,261.5 C 856.467,261.261 858.301,261.594 860,262.5C 862.701,269.987 865.701,277.32 869,284.5C 869.5,276.841 869.666,269.174 869.5,261.5C 871.792,261.244 873.959,261.577 876,262.5C 876.5,276.496 876.667,290.496 876.5,304.5C 873.881,304.768 871.381,304.435 869,303.5C 866.33,296.156 863.663,288.822 861,281.5C 860.5,289.159 860.334,296.826 860.5,304.5C 858.5,304.5 856.5,304.5 854.5,304.5C 854.5,290.167 854.5,275.833 854.5,261.5 Z"/></g>
<g><path style="opacity:0.558" fill="#d9a4a3" d="M 893.5,261.5 C 899.833,261.5 906.167,261.5 912.5,261.5C 912.756,263.792 912.423,265.959 911.5,268C 907.514,268.499 903.514,268.666 899.5,268.5C 899.5,272.5 899.5,276.5 899.5,280.5C 903.182,280.335 906.848,280.501 910.5,281C 911.833,282.667 911.833,284.333 910.5,286C 906.848,286.499 903.182,286.665 899.5,286.5C 899.5,290.5 899.5,294.5 899.5,298.5C 903.833,298.5 908.167,298.5 912.5,298.5C 912.5,300.5 912.5,302.5 912.5,304.5C 906.167,304.5 899.833,304.5 893.5,304.5C 893.5,290.167 893.5,275.833 893.5,261.5 Z"/></g>
<g><path style="opacity:0.58" fill="#d9a4a3" d="M 927.5,261.5 C 929.467,261.261 931.301,261.594 933,262.5C 933.333,274.167 933.667,285.833 934,297.5C 937.805,300.539 940.805,299.872 943,295.5C 943.5,284.172 943.667,272.838 943.5,261.5C 945.167,261.5 946.833,261.5 948.5,261.5C 948.667,273.838 948.5,286.171 948,298.5C 946.469,303.639 942.969,305.972 937.5,305.5C 933.442,305.554 930.276,303.888 928,300.5C 927.5,287.504 927.333,274.504 927.5,261.5 Z"/></g>
<g><path style="opacity:0.568" fill="#d9a4a3" d="M 966.5,261.5 C 983.449,258.031 990.282,264.698 987,281.5C 983.667,283.5 983.667,285.5 987,287.5C 987.499,293.157 987.666,298.824 987.5,304.5C 985.208,304.756 983.041,304.423 981,303.5C 980.646,298.662 980.48,293.995 980.5,289.5C 978.149,287.771 975.482,287.104 972.5,287.5C 972.5,293.167 972.5,298.833 972.5,304.5C 970.5,304.5 968.5,304.5 966.5,304.5C 966.5,290.167 966.5,275.833 966.5,261.5 Z M 972.5,268.5 C 975.722,268.108 978.722,268.608 981.5,270C 980.479,273.149 980.312,276.316 981,279.5C 978.435,281.179 975.602,281.846 972.5,281.5C 972.5,277.167 972.5,272.833 972.5,268.5 Z"/></g>
<g><path style="opacity:0.55" fill="#d9a4a3" d="M 1042.5,261.5 C 1047.51,261.334 1052.51,261.501 1057.5,262C 1063.64,265.798 1065.81,271.298 1064,278.5C 1061.11,285.208 1055.94,287.875 1048.5,286.5C 1048.5,292.5 1048.5,298.5 1048.5,304.5C 1046.5,304.5 1044.5,304.5 1042.5,304.5C 1042.5,290.167 1042.5,275.833 1042.5,261.5 Z M 1048.5,268.5 C 1058.86,267.599 1061.19,271.432 1055.5,280C 1053.19,280.497 1050.86,280.663 1048.5,280.5C 1048.5,276.5 1048.5,272.5 1048.5,268.5 Z"/></g>
<g><path style="opacity:0.592" fill="#d9a4a3" d="M 1114.5,261.5 C 1116.5,261.5 1118.5,261.5 1120.5,261.5C 1120.5,275.833 1120.5,290.167 1120.5,304.5C 1118.5,304.5 1116.5,304.5 1114.5,304.5C 1114.5,290.167 1114.5,275.833 1114.5,261.5 Z"/></g>
<g><path style="opacity:0.52" fill="#d9a4a3" d="M 1213.5,261.5 C 1215.5,261.5 1217.5,261.5 1219.5,261.5C 1219.5,273.833 1219.5,286.167 1219.5,298.5C 1223.5,298.5 1227.5,298.5 1231.5,298.5C 1231.5,300.5 1231.5,302.5 1231.5,304.5C 1225.5,304.5 1219.5,304.5 1213.5,304.5C 1213.5,290.167 1213.5,275.833 1213.5,261.5 Z"/></g>
<g><path style="opacity:0.519" fill="#d9a4a3" d="M 1321.5,261.5 C 1323.47,261.261 1325.3,261.594 1327,262.5C 1327.5,276.496 1327.67,290.496 1327.5,304.5C 1325.5,304.5 1323.5,304.5 1321.5,304.5C 1321.5,290.167 1321.5,275.833 1321.5,261.5 Z"/></g>
<g><path style="opacity:0.581" fill="#d9a4a3" d="M 1387.5,261.5 C 1389.47,261.261 1391.3,261.594 1393,262.5C 1396.44,276.397 1399.27,290.397 1401.5,304.5C 1399.5,304.5 1397.5,304.5 1395.5,304.5C 1395.3,301.482 1394.96,298.482 1394.5,295.5C 1391.5,295.5 1388.5,295.5 1385.5,295.5C 1385.04,298.482 1384.7,301.482 1384.5,304.5C 1382.5,304.5 1380.5,304.5 1378.5,304.5C 1380.54,289.927 1383.54,275.593 1387.5,261.5 Z M 1389.5,278.5 C 1391.41,282.203 1392.24,286.203 1392,290.5C 1390.64,289.62 1389.14,289.286 1387.5,289.5C 1387.85,285.742 1388.51,282.076 1389.5,278.5 Z"/></g>
</svg>
